HIERARCHY
ROOT simHips
{
  OFFSET 94.251 99.7319 87.8199
  CHANNELS 6 Xposition Yposition Zposition Zrotation Xrotation Yrotation
  JOINT simSpine
  {
    OFFSET -0.000355721 21.3001 -0.016921
    CHANNELS 3 Zrotation Xrotation Yrotation
    JOINT simLeftArm
    {
      OFFSET 13.5181 21.3012 0
      CHANNELS 3 Zrotation Xrotation Yrotation
      JOINT simLeftForeArm
      {
        OFFSET 24.5783 0 0
        CHANNELS 3 Zrotation Xrotation Yrotation
        JOINT simLeftHand
        {
          OFFSET 24.5783 0 0
          CHANNELS 3 Zrotation Xrotation Yrotation
          End Site
          {
            OFFSET 7.32568 1.52588e-05 0.0169305
          }
        }
      }
    }
    JOINT simHead
    {
      OFFSET 0 27.4458 -0.00489235
      CHANNELS 3 Zrotation Xrotation Yrotation
      End Site
      {
        OFFSET 0 0 0
      }
    }
    JOINT simRightArm
    {
      OFFSET -13.5174 21.3012 0
      CHANNELS 3 Zrotation Xrotation Yrotation
      JOINT simRightForeArm
      {
        OFFSET -24.5783 0 0
        CHANNELS 3 Zrotation Xrotation Yrotation
        JOINT simRightHand
        {
          OFFSET -24.5783 0 0
          CHANNELS 3 Zrotation Xrotation Yrotation
          End Site
          {
            OFFSET -7.32568 1.52588e-05 0.0169305
          }
        }
      }
    }
  }
  JOINT simRightUpLeg
  {
    OFFSET -8.44614 -9.41038 0.835684
    CHANNELS 3 Zrotation Xrotation Yrotation
    JOINT simRightLeg
    {
      OFFSET 0 -40.9639 0
      CHANNELS 3 Zrotation Xrotation Yrotation
      JOINT simRightFoot
      {
        OFFSET 0 -40.9639 0
        CHANNELS 3 Zrotation Xrotation Yrotation
        End Site
        {
          OFFSET 0.50614 -9.67405 14.6709
        }
      }
    }
  }
  JOINT simLeftUpLeg
  {
    OFFSET 8.44614 -9.41038 0.835684
    CHANNELS 3 Zrotation Xrotation Yrotation
    JOINT simLeftLeg
    {
      OFFSET 0 -40.9639 0
      CHANNELS 3 Zrotation Xrotation Yrotation
      JOINT simLeftFoot
      {
        OFFSET 0 -40.9639 0
        CHANNELS 3 Zrotation Xrotation Yrotation
        End Site
        {
          OFFSET -0.50614 -9.67405 14.6709
        }
      }
    }
  }
}
MOTION
Frames:	24
Frame Time:	0.0333333
13.1695 86.3992 129.588 -16.4376 -1.17122 -102.727 -7.1457 25.5272 12.5933 -55.108 40.2956 -14.0365 23.3306 -21.3381 -111.736 20.2294 -10.0963 -0.561979 -15.5623 10.2508 -14.1077 55.6935 48.5085 17.5783 -35.2999 -30.394 77.3011 -12.9633 -40.2817 -6.44613 -12.4355 -25.0911 -8.60659 16.3745 62.9018 -11.5699 -11.4175 -16.4833 -29.2695 9.73449 -32.1975 -11.1037 -54.4678 66.5207 38.9135 -7.12324 -6.05487 -2.55055 
15.7832 86.1498 131.878 -14.0779 -0.892753 -103.682 -5.31842 27.198 8.6922 -74.252 40.4707 4.83878 23.4687 -20.2035 -108.215 22.2979 -7.78628 0.0171571 -12.7805 4.58474 -17.1948 38.3306 43.7105 38.3721 -35.8726 -33.7648 82.6345 -14.0144 -29.3687 -0.933425 -11.0383 -29.9613 -3.8989 15.9681 62.3249 -11.1146 -7.89543 -14.4134 -25.6897 9.33445 -30.1795 -14.3655 -60.0161 67.7502 44.1217 -2.74955 -11.0218 -3.82326 
18.6547 85.8597 134.755 -11.6629 -0.176029 -105.977 -2.51531 29.8255 11.2857 -85.3808 40.5605 17.7997 23.534 -18.3683 -102.609 20.0147 -4.97509 2.83947 -13.5998 -2.04655 -24.2811 28.8736 31.817 43.9458 -36.0043 -34.1796 83.2954 -21.8316 -23.8713 1.56468 -9.72172 -35.0213 -0.983322 14.8911 60.7245 -10.0951 -5.9847 -10.1759 -23.4286 8.53749 -27.9094 -16.5387 -52.3132 65.955 36.9742 -0.214986 -20.4159 -4.90788 
21.4005 85.5646 137.509 -9.57611 -0.748367 -109.594 -2.79637 31.48 16.9618 -81.8008 42.2881 22.9289 23.5357 -18.503 -103.018 18.3602 -6.43485 2.33956 -15.9543 -6.16796 -29.456 25.3433 26.064 36.5814 -34.0406 -26.0336 70.4451 -16.8067 -29.6568 0.208707 -8.04352 -40.0189 4.06401 13.6064 58.5731 -8.9099 -4.15116 -5.95323 -22.4978 7.2796 -27.3035 -15.7094 -43.4255 62.9222 28.9109 2.13465 -26.4769 -4.79586 
23.8334 85.3274 139.443 -9.91084 -0.778531 -110.059 -3.74354 33.3367 19.4731 -64.5065 41.1632 16.3895 23.5292 -19.1753 -105.064 15.0814 -3.98088 0.515161 -15.9485 -6.54713 -31.9257 28.3835 32.1966 22.3586 -27.5255 -14.3191 50.6247 -18.5403 -27.6049 -2.66604 -6.70369 -40.9738 7.84641 12.3343 56.1401 -7.78445 -3.68111 -1.7509 -24.5849 6.02561 -26.8992 -15.452 -39.456 61.1104 25.3848 3.33348 -27.9672 -2.80851 
26.3287 85.1862 140.822 -12.8502 0.305015 -107.106 -2.77397 36.4822 17.383 -40.3832 36.3988 -1.91956 23.539 -18.476 -102.936 14.2035 -12.2029 0.619846 -13.9192 -2.67453 -30.5438 43.5503 43.4239 -0.606789 -21.1659 -7.92241 37.0014 -17.0426 -30.3284 -1.29576 -6.87529 -37.8342 8.93701 11.2731 53.8243 -6.84293 -2.6092 1.86594 -27.1342 5.53281 -25.4361 -15.1502 -37.1014 59.8605 23.2931 2.79979 -27.0551 -0.961863 
28.8008 85.5829 142.105 -14.7731 1.0093 -103.929 -2.54546 37.7004 12.1486 -20.0877 26.0457 -24.0946 23.4829 -17.2075 -99.0905 17.5852 -11.8478 0.834135 -7.78949 4.29683 -27.6306 72.3954 44.6544 -31.5094 -20.4415 -7.36145 35.5943 -15.9976 -30.4644 -0.168572 -8.11079 -35.1773 8.50551 10.0058 50.6574 -5.74542 -1.22672 6.1115 -26.2878 5.8321 -24.6752 -13.7097 -33.9238 57.9345 20.5313 2.98435 -24.4504 -0.907312 
31.4656 86.8169 143.647 -16.2946 2.72614 -102.919 -4.50307 38.3403 3.34977 -10.5753 14.1102 -41.1392 23.3411 -16.0012 -95.4437 20.2815 -16.9306 1.32262 1.53172 13.5895 -19.9316 91.7108 36.6386 -51.9336 -21.8546 -8.46031 38.3072 -14.444 -30.4093 0.652282 -8.02393 -32.8391 9.33883 8.63011 46.6423 -4.51528 3.38463 12.7921 -21.7872 7.76129 -22.9615 -11.1404 -29.6188 54.7862 16.8572 2.24851 -19.8769 -3.07517 
34.2477 88.7145 145.87 -17.24 6.15664 -104.961 -7.56175 38.674 -7.23588 -6.74905 7.50237 -54.2132 22.9288 -13.9174 -89.0849 25.5898 -21.516 2.19756 7.30671 24.7581 -10.4156 93.3954 28.6322 -61.1106 -23.2299 -9.69301 41.1581 -11.037 -28.2501 2.99609 -7.57303 -30.8184 4.85061 6.24343 39.2011 -2.60416 9.63032 26.3185 -14.6136 11.5005 -19.7181 -6.16723 -24.4313 49.9269 12.6391 2.74536 -14.4707 -3.76678 
37.1586 90.6064 148.764 -15.9388 11.1127 -110.012 -8.80345 39.7426 -17.556 -8.41748 3.88435 -62.3952 21.3638 -9.91735 -76.3771 25.6907 -13.7873 -2.71674 6.86309 32.5773 0.253223 78.6019 23.603 -59.1211 -25.1431 -11.5749 45.2077 -8.5115 -23.4414 5.61493 -5.57949 -34.2615 -3.74699 6.1394 38.9887 -2.29833 17.6868 22.7526 -4.48896 16.8723 -17.2107 -0.418407 -20.1033 44.6816 9.3347 3.12407 -9.25001 -3.55284 
40.2539 92.1481 152.232 -12.8957 16.3146 -119.311 -9.74783 41.7829 -23.4616 -6.24587 -1.54281 -63.2226 17.7768 -5.03699 -58.3931 32.2938 -15.5603 -3.06219 7.77154 33.0103 7.81776 58.1061 20.8462 -50.0304 -27.4018 -14.1629 50.3288 -9.44056 -23.5954 3.26836 -1.62837 -44.1602 -6.15019 9.42321 49.1043 -4.70527 20.2324 14.7893 -6.0144 22.6273 -14.2408 6.00098 -16.4501 39.1618 6.75547 3.15303 -4.19905 -1.15359 
43.0061 93.3952 156.192 -8.23497 21.5446 -130.427 -7.49948 45.1257 -27.0739 2.12766 -7.03048 -53.7515 14.2336 -2.26752 -44.975 36.8969 -26.3616 3.51809 13.8955 28.8773 13.0848 37.7554 18.1775 -40.0845 -28.8582 -16.0951 53.9028 -8.21515 -24.2394 3.67537 3.37494 -56.7435 -4.62748 17.695 64.43 -12.0346 19.952 8.45024 -8.72081 28.2294 -10.3949 10.8031 -13.1141 33.0573 4.61278 2.374 0.798509 2.90896 
45.5032 95.0237 159.898 -1.14678 24.7465 -141.582 -1.51683 46.9771 -30.065 7.26102 -5.34454 -35.8248 14.0974 -2.17469 -44.4295 42.2216 -27.2019 5.854 18.7099 24.9939 17.5332 20.926 14.8415 -35.1234 -29.5238 -17.0627 55.6304 -7.86619 -22.9597 4.49421 5.00862 -70.5829 -5.23645 47.4212 78.5064 -40.8073 18.7721 3.54274 -2.6504 32.7578 -6.34635 15.2583 -8.15 23.2657 2.02706 -0.33974 8.18359 6.45734 
47.9027 97.3771 163.092 7.08908 25.1646 -152.702 5.17498 47.6969 -31.1581 2.44827 0.407305 -14.3171 16.6399 -3.99444 -53.8002 48.158 -24.4159 6.90511 21.7076 23.2876 21.0082 9.67851 12.3154 -33.9033 -29.5682 -17.1293 55.7479 -7.77605 -25.5561 4.18921 -15.8916 -82.6005 -27.1733 121.625 79.7465 -114.112 18.9739 0.137672 3.21253 33.6553 1.12442 21.8008 -0.400425 3.24276 -0.194395 -6.2507 20.5577 8.78692 
50.077 99.9026 165.474 15.1036 22.2732 -162.851 10.2885 46.7778 -30.2646 -12.448 5.77412 7.72878 19.5618 -7.07347 -66.4245 49.0542 -20.9498 8.77542 23.8602 22.3994 23.308 5.87818 13.5924 -35.7601 -29.5439 -17.093 55.6838 -10.2467 -26.1159 2.66739 -107.092 -80.8615 -117.462 148.184 73.3787 -140.04 18.0373 -2.89898 3.93533 40.4682 -0.200854 29.959 -0.00861724 2.76141 -0.43778 -10.3363 24.2962 7.72245 
52.1864 101.958 167.169 21.6762 17.788 -171.955 12.9765 45.6095 -26.2352 -32.9971 7.25159 26.7312 21.399 -9.98455 -76.6002 45.0495 -18.1944 9.1432 24.4152 21.5586 24.3285 10.409 16.4114 -40.1883 -29.0494 -16.3672 54.3925 -7.35314 -26.2207 4.76121 -113.325 -73.8708 -120.157 152.072 71.341 -143.736 15.6374 -4.89159 2.84959 46.0173 1.23936 31.4146 0.105519 2.66472 -0.691866 -12.6437 25.2707 1.74076 
54.6396 103.611 168.472 26.2411 13.2422 -179.889 12.7439 45.0916 -22.1335 -51.6391 1.20759 41.2697 22.383 -12.2307 -83.8479 40.193 -16.9843 8.12298 21.5236 19.4559 28.0436 21.7874 17.4987 -39.0002 -26.6564 -13.2593 48.5898 -8.13084 -27.1141 4.84426 -92.5607 -72.9524 -94.3556 140.854 76.1597 -132.972 13.8265 -4.25867 1.22899 46.4714 6.02722 24.7266 0.012043 1.62038 -0.435399 -13.2445 23.2053 5.05778 
57.5479 104.538 169.223 27.6993 8.45897 175.374 11.0031 42.7027 -18.8735 -60.9283 -6.91857 48.1885 22.8655 -13.7413 -88.5505 36.3133 -13.3335 5.60533 17.0372 16.6884 30.7531 37.1926 17.8107 -37.6917 -22.8584 -9.35571 40.3957 -7.66536 -32.2767 4.32523 -61.167 -69.5542 -56.6014 86.1476 81.3774 -79.0693 11.9472 0.545641 -0.939111 43.0067 7.76931 28.1287 -0.287292 1.17801 -0.3192 -15.1925 18.6257 8.36841 
61.6246 104.259 169.541 25.9033 5.87795 174.833 9.01681 38.0385 -16.6655 -56.0489 -5.61646 49.4301 23.0968 -14.6737 -91.4056 31.7581 -12.4095 4.29373 11.9507 15.0598 32.6584 55.4705 17.0561 -42.2555 -21.0723 -7.84991 36.8223 -4.44449 -35.4655 4.26687 -42.0289 -58.5567 -30.3044 32.1909 74.5211 -25.9065 11.3758 6.61991 -2.55231 37.9585 7.08602 29.3163 -0.371971 1.03544 -0.224659 -12.7873 13.6345 8.03931 
66.8135 102.805 169.528 22.8487 4.38447 176.475 5.96767 31.7902 -16.4751 -39.9879 3.25279 44.6564 23.1091 -14.7311 -91.5843 30.8534 -12.0843 2.10392 9.08982 14.5328 35.4524 74.3882 15.388 -48.8092 -22.4038 -8.95578 39.4745 0.241279 -35.994 6.80705 -33.5391 -44.546 -16.1997 16.477 63.0053 -10.9301 11.5636 13.3528 -0.736126 35.4565 5.30824 28.3159 -0.353368 0.983427 -0.137527 -9.13108 8.21912 7.53283 
72.6356 100.366 169.345 18.7262 2.35447 177.212 -0.375208 24.6912 -16.9633 -19.7901 10.5824 32.1615 22.6867 -13.1299 -86.66 29.5656 -15.0287 -0.158638 10.5342 14.1922 39.2932 88.7211 9.91706 -50.864 -24.2964 -10.7103 43.3872 2.99873 -33.8805 9.32019 -29.4835 -32.5076 -9.51403 9.77366 50.1089 -5.04035 11.4168 21.5078 1.59889 34.6725 3.62068 26.7524 -0.346782 0.964734 -0.159884 -12.2279 4.78203 7.55697 
78.3589 97.2784 169.453 14.2218 1.24677 177.44 -6.66325 19.6997 -18.0835 -2.51123 12.7254 12.7854 21.7528 -10.7077 -78.9762 27.6759 -13.594 -4.59828 12.9984 11.4898 43.5766 98.0309 3.67936 -48.5342 -26.1565 -12.6816 47.452 1.82211 -37.6102 7.47294 -27.2445 -21.2393 -8.57819 5.31085 36.0139 -1.68336 14.3837 26.7547 -0.745487 37.8952 -1.58367 25.6461 -4.21401 12.1016 0.386039 -14.5724 -1.62939 5.66308 
83.1967 93.4553 170.09 10.577 0.494363 176.533 -10.0146 17.4081 -19.0835 4.27288 5.42935 -6.27339 21.3331 -9.85881 -76.1816 24.3758 -10.8966 -7.71377 16.7643 6.61467 48.3833 101.713 6.2098 -41.2452 -27.7508 -14.6049 51.1627 -1.26658 -36.6514 4.5152 -25.2499 -13.8316 -6.42653 3.06891 27.7524 -0.471652 14.1138 23.1765 3.05351 42.6144 -7.09518 26.459 -9.21305 25.0653 2.13758 -13.6611 -6.53369 4.35994 
86.3399 88.6199 171.304 7.52015 0.274341 172.803 -9.97332 16.9622 -18.8562 -3.84498 -3.91373 -22.083 21.7708 -10.7415 -79.0863 23.8792 -9.98326 -8.08937 18.6059 0.272119 54.5984 97.402 15.5269 -30.8281 -30.3318 -18.3223 57.8271 -2.39305 -35.1925 4.96428 -26.7065 -13.9571 -5.19641 4.64553 31.2981 -1.16215 22.1508 4.26005 -7.23208 46.6087 -10.9773 24.9476 -15.2564 37.0182 5.50469 -12.763 -10.8388 6.10842 
